<svg xmlns="http://www.w3.org/2000/svg" viewBox="0 0 492.69 493.52"><defs><style>.cls-1{fill:#fff;}</style></defs><title>search_icon</title><g id="Layer_2" data-name="Layer 2"><g id="Layer_1-2" data-name="Layer 1"><path class="cls-1" d="M346.3,301.15l0,0,0,0Z"/><path class="cls-1" d="M352.72,317.49l0,0,0,0q1.77-2.28,3.46-4.6C355.07,314.44,353.91,316,352.72,317.49Z"/><path class="cls-1" d="M485.73,424.18,386,324.49a24,24,0,0,0-17-7H352.76l0,0,0,0c1.19-1.52,2.35-3.05,3.5-4.6l1.39-1.92A195.93,195.93,0,0,0,394,197C394,88.37,305.63,0,197,0S0,88.37,0,197,88.38,394,197,394a196,196,0,0,0,119.64-40.59l.08.07v16.3a24,24,0,0,0,7,17l99.71,99.69a23.9,23.9,0,0,0,33.9,0l28.3-28.3A24.1,24.1,0,0,0,485.73,424.18ZM197,359c-89.33,0-162-72.67-162-162S107.67,35,197,35s162,72.67,162,162S286.33,359,197,359Z"/><path class="cls-1" d="M197,101a73.83,73.83,0,0,0-73.84,73.83c0,33,48.26,93,66.75,114.86a9.23,9.23,0,0,0,13,1.16,9.08,9.08,0,0,0,1.16-1.16c18.49-21.81,66.75-81.89,66.75-114.86A73.83,73.83,0,0,0,197,101Zm0,96a24,24,0,1,1,24-24A24,24,0,0,1,197,197Z"/></g></g></svg>